<svg width="512" height="512" viewBox="0 0 512 512" fill="none" xmlns="http://www.w3.org/2000/svg">
<g id="company-registration 1">
<g id="Group">
<g id="right-building">
<path id="path" d="M296 504V136H472V504" fill="#3D98F7"/>
</g>
<path id="Vector" d="M344 456H424V504H344V456Z" fill="#F5B953"/>
<g id="middle-building">
<path id="path_2" d="M200 344H296V504H200V344Z" fill="#2B74CA"/>
</g>
<g id="left-building">
<path id="path_3" d="M24 504V256H200V504" fill="#3D98F7"/>
</g>
<g id="windows">
<path id="Vector_2" d="M328 200H360V232H328V200Z" fill="white"/>
<path id="Vector_3" d="M408 200H440V232H408V200Z" fill="white"/>
<path id="Vector_4" d="M328 264H360V296H328V264Z" fill="white"/>
<path id="Vector_5" d="M408 264H440V296H408V264Z" fill="white"/>
<path id="Vector_6" d="M328 328H360V360H328V328Z" fill="white"/>
<path id="Vector_7" d="M408 328H440V360H408V328Z" fill="white"/>
<path id="Vector_8" d="M328 392H360V424H328V392Z" fill="white"/>
<path id="Vector_9" d="M408 392H440V424H408V392Z" fill="white"/>
<path id="Vector_10" d="M56 288H88V320H56V288Z" fill="white"/>
<path id="Vector_11" d="M136 288H168V320H136V288Z" fill="white"/>
<path id="Vector_12" d="M56 352H88V384H56V352Z" fill="white"/>
<path id="Vector_13" d="M136 352H168V384H136V352Z" fill="white"/>
<path id="Vector_14" d="M56 416H88V448H56V416Z" fill="white"/>
<path id="Vector_15" d="M136 416H168V448H136V416Z" fill="white"/>
</g>
<g id="left-block">
<g id="Vector_16" filter="url(#filter0_d)">
<path d="M40 256V224H184V256" fill="#F5B953"/>
</g>
</g>
<g id="right-block">
<g id="Group_2">
<path id="Vector_17" d="M336 64H352V104H336V64Z" fill="#4D5D7A"/>
</g>
<g id="Group_3">
<path id="Vector_18" d="M416 64H432V104H416V64Z" fill="#4D5D7A"/>
</g>
<path id="Vector_19" d="M312 136V104H456V136" fill="#F5B953"/>
<path id="Vector_20" d="M344 72C352.837 72 360 61.2548 360 48C360 34.7452 352.837 24 344 24C335.163 24 328 34.7452 328 48C328 61.2548 335.163 72 344 72Z" fill="#669E4F"/>
<path id="Vector_21" d="M424 72C432.837 72 440 61.2548 440 48C440 34.7452 432.837 24 424 24C415.163 24 408 34.7452 408 48C408 61.2548 415.163 72 424 72Z" fill="#669E4F"/>
</g>
<g id="Group_4">
<path id="Vector_22" d="M0 496H496V512H0V496Z" fill="#4D5D7A"/>
</g>
<g id="middle-windows">
<g id="Group_5">
<path id="Vector_23" d="M224 368H240V384H224V368Z" fill="white"/>
</g>
<g id="Group_6">
<path id="Vector_24" d="M224 464H240V480H224V464Z" fill="white"/>
</g>
<g id="Group_7">
<path id="Vector_25" d="M256 400H272V416H256V400Z" fill="white"/>
</g>
<g id="Group_8">
<path id="Vector_26" d="M224 432H240V448H224V432Z" fill="white"/>
</g>
<g id="Group_9">
<path id="Vector_27" d="M256 432H272V448H256V432Z" fill="white"/>
</g>
<g id="Group_10">
<path id="Vector_28" d="M256 368H272V384H256V368Z" fill="white"/>
</g>
<g id="Group_11">
<path id="Vector_29" d="M224 400H240V416H224V400Z" fill="white"/>
</g>
</g>
<g id="Group_12">
<path id="Vector_30" d="M256 464H272V480H256V464Z" fill="white"/>
</g>
<g id="Group_13">
<path id="Vector_31" d="M320 160H448V176H320V160Z" fill="white"/>
</g>
</g>
</g>
<defs>
<filter id="filter0_d" x="36" y="224" width="152" height="40" filterUnits="userSpaceOnUse" color-interpolation-filters="sRGB">
<feFlood flood-opacity="0" result="BackgroundImageFix"/>
<feColorMatrix in="SourceAlpha" type="matrix" values="0 0 0 0 0 0 0 0 0 0 0 0 0 0 0 0 0 0 127 0"/>
<feOffset dy="4"/>
<feGaussianBlur stdDeviation="2"/>
<feColorMatrix type="matrix" values="0 0 0 0 0 0 0 0 0 0 0 0 0 0 0 0 0 0 0.25 0"/>
<feBlend mode="normal" in2="BackgroundImageFix" result="effect1_dropShadow"/>
<feBlend mode="normal" in="SourceGraphic" in2="effect1_dropShadow" result="shape"/>
</filter>
</defs>
</svg>
