<svg width="512" height="512" viewBox="0 0 512 512" fill="none" xmlns="http://www.w3.org/2000/svg">
<g id="cutlery 1" clip-path="url(#clip0)">
<g id="Page 1">
<g id="020   Cutlery and Plates">
<path id="Shape" d="M117.76 360.43C56.7787 303.745 36.5851 215.574 66.8166 137.998C97.0481 60.4224 171.577 9.16548 254.834 8.68988C338.091 8.21427 413.2 58.6164 444.316 135.842C475.432 213.067 456.247 301.463 395.917 358.841L361.931 384.883C295.325 425.733 211.188 424.737 145.567 382.323L117.76 360.43Z" fill="#3B97D3"/>
<g id="Group">
<path id="Shape_2" d="M385.148 304.287C396.568 288.299 404.947 270.344 409.865 251.321C411.135 246.066 409.928 240.519 406.589 236.267C403.249 232.015 398.146 229.528 392.739 229.517H119.084C113.598 229.5 108.416 232.035 105.061 236.376C101.706 240.716 100.56 246.37 101.959 251.674C108.915 277.829 122.437 301.772 141.241 321.236L192.883 357.517C207.329 363.882 222.658 368.019 238.345 369.788C250.079 371.082 261.921 371.082 273.655 369.788C282.198 368.873 290.645 367.219 298.902 364.844L361.931 353.103L385.148 304.287Z" fill="#2980BA"/>
<path id="Shape_3" d="M392.739 194.207H291.31C281.56 194.207 273.655 186.302 273.655 176.552V75.1228C273.638 69.6367 276.173 64.4546 280.513 61.0997C284.854 57.7447 290.508 56.5983 295.812 57.9972C351.647 72.6111 395.251 116.215 409.865 172.05C411.264 177.354 410.117 183.008 406.762 187.349C403.407 191.689 398.225 194.224 392.739 194.207V194.207Z" fill="#2980BA"/>
<path id="Shape_4" d="M238.345 75.1228V176.552C238.345 186.302 230.44 194.207 220.69 194.207H119.261C113.775 194.224 108.593 191.689 105.238 187.349C101.883 183.008 100.736 177.354 102.135 172.05C116.749 116.215 160.353 72.6111 216.188 57.9972C221.492 56.5983 227.146 57.7447 231.487 61.0997C235.827 64.4546 238.362 69.6367 238.345 75.1228V75.1228Z" fill="#2980BA"/>
</g>
<g id="spoon">
<path id="Shape_5" d="M97.5448 380.646L130.119 348.072C134.935 343.651 138.057 337.688 138.946 331.211C140.692 318.292 146.759 306.345 156.16 297.313C175.139 278.334 201.622 274.185 215.481 287.956C229.341 301.727 225.103 328.298 206.124 347.277C197.092 356.678 185.145 362.745 172.226 364.491C165.75 365.381 159.786 368.503 155.366 373.319L122.527 406.069L97.5448 380.646Z" fill="#BDC3C7"/>
<path id="Shape_6" d="M122.527 406.069C120.32 423.283 107.167 446.323 86.4221 467.068C55.4372 497.699 19.0676 512 5.29654 497.876C-8.47449 483.752 5.29654 447.735 36.5462 416.75C57.291 396.006 80.6841 382.852 97.5448 380.646C104.644 378.945 112.129 380.75 117.672 385.501C122.566 391.146 124.38 398.832 122.527 406.069Z" fill="#7D6599"/>
</g>
<g id="fork">
<path id="Shape_7" d="M389.473 406.069L379.057 395.652C374.317 390.713 368.436 387.015 361.931 384.883C355.785 382.751 349.251 381.968 342.775 382.588C326.973 384.114 311.347 378.286 300.403 366.786C291.619 357.77 285.507 346.494 282.748 334.212C281.983 330.371 283.841 326.485 287.311 324.668C290.781 322.852 295.033 323.539 297.754 326.356L319.382 348.072C321.048 349.724 323.303 350.645 325.65 350.632C327.996 350.645 330.251 349.724 331.917 348.072C333.588 346.414 334.528 344.158 334.528 341.804C334.528 339.45 333.588 337.194 331.917 335.537L295.636 299.255C293.851 297.497 292.847 295.096 292.847 292.59C292.847 290.085 293.851 287.684 295.636 285.926C299.3 282.371 305.125 282.371 308.789 285.926L345.07 322.207C348.513 325.63 354.074 325.63 357.517 322.207C360.94 318.764 360.94 313.203 357.517 309.76L337.214 289.368C334.278 286.514 333.691 282.017 335.794 278.504C337.897 274.991 342.14 273.386 346.041 274.626C357.206 277.701 367.39 283.599 375.614 291.752C387.114 302.696 392.941 318.322 391.415 334.124C390.614 342.592 392.172 351.116 395.917 358.753C397.979 362.97 400.723 366.818 404.039 370.141L414.897 380.646L389.473 406.069Z" fill="#BDC3C7"/>
<path id="Shape_8" d="M506.703 497.876C492.932 511.647 456.563 497.876 425.578 466.626C404.833 445.881 391.68 422.488 389.473 405.628C387.096 398.441 389.011 390.529 394.41 385.224C399.808 379.919 407.753 378.143 414.897 380.646C432.11 382.852 455.15 396.006 475.895 416.75C506.527 447.735 520.828 484.105 506.703 497.876V497.876Z" fill="#7D6599"/>
</g>
</g>
</g>
</g>
<defs>
<clipPath id="clip0">
<rect width="512" height="512" fill="white"/>
</clipPath>
</defs>
</svg>
