<svg height="512" viewBox="0 0 58 56" width="512" xmlns="http://www.w3.org/2000/svg"><g id="Page-1" fill="none" fill-rule="evenodd"><g id="020---Cutlery-and-Plates" fill-rule="nonzero" transform="translate(-1 -1)"><path id="Shape" d="m14.34 40.83c-6.90804123-6.421413-9.19559754-16.4094625-5.77093624-25.1973674 3.42466134-8.78790497 11.86736084-14.59435576 21.29883344-14.64823278 9.4314726-.05387703 17.9399574 5.65574059 21.4647933 14.40394668 3.5248358 8.7482062 1.351538 18.7617382-5.4826905 25.2616535l-3.85 2.95c-7.5451953 4.62755-17.0764071 4.5147776-24.51-.29z" fill="#3b97d3"/><g fill="#2980ba"><path id="Shape" d="m44.63 34.47c1.2937224-1.81117 2.2428812-3.8450816 2.8-6 .1439263-.5952955.0071648-1.2237197-.3711322-1.7053658-.3782969-.4816461-.9564218-.7634124-1.5688678-.7646342h-31c-.6214649-.0019018-1.208501.2852011-1.5885517.7769162s-.5099255 1.1321618-.3514483 1.7330838c.7880618 2.9627706 2.3198046 5.6751601 4.45 7.88l5.85 4.11c1.6365395.7209816 3.3729427 1.1896419 5.15 1.39 1.3293014.1466409 2.6706986.1466409 4 0 .9677322-.1036199 1.9246521-.2909889 2.86-.56l7.14-1.33z"/><path id="Shape" d="m45.49 22h-11.49c-1.1045695 0-2-.8954305-2-2v-11.49c-.0019018-.62146494.2852011-1.20850099.7769162-1.58855171.4917151-.38005071 1.1321618-.5099255 1.7330838-.35144829 6.3249929 1.65547211 11.2645279 6.5950071 12.92 12.92.1584772.600922.0286024 1.2413687-.3514483 1.7330838s-.9670868.778818-1.5885517.7769162z"/><path id="Shape" d="m28 8.51v11.49c0 1.1045695-.8954305 2-2 2h-11.49c-.6214649.0019018-1.208501-.2852011-1.5885517-.7769162s-.5099255-1.1321618-.3514483-1.7330838c1.6554721-6.3249929 6.5950071-11.26452789 12.92-12.92.600922-.15847721 1.2413687-.02860242 1.7330838.35144829.4917151.38005072.778818.96708677.7769162 1.58855171z"/></g><path id="Shape" d="m12.05 43.12 3.69-3.69c.5455689-.5008015.8992404-1.1763141 1-1.91.1978145-1.4634478.885099-2.8168695 1.95-3.84 2.15-2.15 5.15-2.62 6.72-1.06s1.09 4.57-1.06 6.72c-1.0231305 1.064901-2.3765522 1.7521855-3.84 1.95-.7336859.1007596-1.4091985.4544311-1.91 1l-3.72 3.71z" fill="#bdc3c7"/><path id="Shape" d="m45.12 46-1.18-1.18c-.5368837-.5595445-1.203104-.9785078-1.94-1.22-.6962609-.2415291-1.4363881-.330208-2.17-.26-1.7900848.1728624-3.5601984-.4872425-4.8-1.79-.9950734-1.0213823-1.6873952-2.298716-2-3.69-.0866309-.435167.1238482-.8753808.5169425-1.0811772.3930943-.2057965.8747898-.1279564 1.1830575.1911772l2.45 2.46c.1887188.1871865.444197.2915368.71.29.265803.0015368.5212812-.1028135.71-.29.1893127-.1877666.2957983-.4433625.2957983-.71s-.1064856-.5222334-.2957983-.71l-4.11-4.11c-.2021544-.1992161-.3159738-.4711806-.3159738-.755s.1138194-.5557839.3159738-.755c.4150703-.4026224 1.0749297-.4026224 1.49 0l4.11 4.11c.3900375.3877236 1.0199625.3877236 1.41 0 .3877236-.3900375.3877236-1.0199625 0-1.41l-2.3-2.31c-.3325258-.3233033-.3991176-.8328153-.1608516-1.2307195s.718853-.5797643 1.1608516-.4392805c1.2646987.3483438 2.4184011 1.0164581 3.35 1.94 1.3027575 1.2398016 1.9628624 3.0099152 1.79 4.8-.0907528.9592454.0857633 1.9248925.51 2.79.2335654.4777114.5444137.9135748.92 1.29l1.23 1.19z" fill="#bdc3c7"/><path id="Shape" d="m14.88 46c-.25 1.95-1.74 4.56-4.09 6.91-3.51 3.47-7.63 5.09-9.19 3.49-1.56-1.6 0-5.68 3.54-9.19 2.35-2.35 5-3.84 6.91-4.09.8042246-.192673 1.6520701.0118512 2.28.55.5543894.6394502.7599157 1.5101344.55 2.33z" fill="#7d6599"/><path id="Shape" d="m58.4 56.4c-1.56 1.56-5.68 0-9.19-3.54-2.35-2.35-3.84-5-4.09-6.91-.2692327-.8140669-.0523777-1.7103926.5592046-2.3113572.6115823-.6009645 1.511568-.80209 2.3207954-.5186428 1.95.25 4.56 1.74 6.91 4.09 3.47 3.51 5.09 7.63 3.49 9.19z" fill="#7d6599"/></g></g></svg>