<svg height="512pt" viewBox="0 -40 512 512" width="512pt" xmlns="http://www.w3.org/2000/svg"><path d="m119.207031 85.699219 179.988281-77.859375 179.988282 77.859375v318.640625h-359.976563zm0 0" fill="#61b4d8"/><path d="m158.214844 128.144531h281.964844v263.167969h-281.964844zm0 0" fill="#ccc"/><path d="m187.0625 156.996094h224.265625v234.316406h-224.265625zm0 0" fill="#1a414c"/><path d="m479.175781 93.539062c-1.039062 0-2.09375-.207031-3.109375-.644531l-176.871094-76.519531-176.871093 76.519531c-3.972657 1.71875-8.585938-.109375-10.304688-4.082031s.109375-8.585938 4.082031-10.300781l179.984376-77.867188c1.984374-.859375 4.238281-.859375 6.222656 0l179.984375 77.867188c3.972656 1.71875 5.796875 6.332031 4.078125 10.300781-1.28125 2.960938-4.164063 4.726562-7.195313 4.726562zm0 0" fill="#3598ba"/><path d="m35.984375 244.632812h306.261719v147.722657h-306.261719zm0 0" fill="#d1244a"/><path d="m156.0625 244.632812h186.183594v147.722657h-186.183594zm0 0" fill="#f7526e"/><path d="m88.191406 244.632812h15.671875v147.722657h-15.671875zm0 0" fill="#f7526e"/><path d="m384.011719 262.726562-61.953125-64.851562v34.261719h-101.863282v61.183593h101.863282v34.257813zm0 0" fill="#4ccc9b"/><path d="m512 426.777344v6.140625h-512v-6.140625c0-19.875 16.113281-35.988282 35.984375-35.988282h440.019531c19.882813 0 35.996094 16.113282 35.996094 35.988282zm0 0" fill="#1a414c"/><path d="m512 426.777344v6.140625h-460.257812v-6.140625c0-19.875 16.113281-35.988282 35.988281-35.988282h388.273437c19.882813 0 35.996094 16.113282 35.996094 35.988282zm0 0" fill="#2e5968"/></svg>