<svg width="512" height="512" viewBox="0 0 512 512" fill="none" xmlns="http://www.w3.org/2000/svg">
<g id="import 1">
<path id="Vector" d="M119.207 125.699L299.195 47.8398L479.184 125.699V444.34H119.207V125.699Z" fill="#61B4D8"/>
<path id="Vector_2" d="M158.215 168.145H440.18V431.312H158.215V168.145Z" fill="#CCCCCC"/>
<path id="Vector_3" d="M187.062 196.996H411.328V431.312H187.062V196.996Z" fill="#1A414C"/>
<path id="Vector_4" d="M479.176 133.539C478.137 133.539 477.082 133.332 476.066 132.895L299.195 56.375L122.324 132.895C118.352 134.613 113.738 132.785 112.02 128.812C110.301 124.84 112.129 120.227 116.102 118.512L296.086 40.6445C298.07 39.7852 300.324 39.7852 302.309 40.6445L482.293 118.512C486.266 120.23 488.09 124.844 486.371 128.812C485.09 131.773 482.207 133.539 479.176 133.539V133.539Z" fill="#3598BA"/>
<g id="cargo">
<path id="Vector_5" d="M35.9844 284.633H342.246V432.355H35.9844V284.633Z" fill="#D1244A"/>
<path id="Vector_6" d="M156.062 284.633H342.246V432.355H156.062V284.633Z" fill="#F7526E"/>
<path id="Vector_7" d="M88.1914 284.633H103.863V432.355H88.1914V284.633Z" fill="#F7526E"/>
<path id="Vector_8" d="M384.012 302.727L322.059 237.875V272.137H220.195V333.32H322.059V367.578L384.012 302.727Z" fill="#4CCC9B"/>
</g>
<path id="Vector_9" d="M512 466.777V472.918H0V466.777C0 446.902 16.1133 430.789 35.9844 430.789H476.004C495.887 430.789 512 446.902 512 466.777V466.777Z" fill="#1A414C"/>
<path id="Vector_10" d="M512 466.777V472.918H51.7422V466.777C51.7422 446.902 67.8555 430.789 87.7305 430.789H476.004C495.887 430.789 512 446.902 512 466.777V466.777Z" fill="#2E5968"/>
</g>
</svg>
