<svg id="Capa_1" enable-background="new 0 0 511.999 511.999" height="512" viewBox="0 0 511.999 511.999" width="512" xmlns="http://www.w3.org/2000/svg"><g><path d="m296.693 134.112h69.949v57.605h-69.949z" fill="#665e66" transform="matrix(.707 .707 -.707 .707 212.341 -186.808)"/><path d="m511.184 283.794-19.872 19.862-51.808-51.808c6.809-14.536 4.213-32.399-7.798-44.421-14.165-14.155-36.448-15.236-51.849-3.245-1.998 1.556-3.873 3.327-5.604 5.316-1.751 2.009-3.255 4.162-4.512 6.418-7.922 14.083-6.48 32.193 4.368 44.802 11.95 13.897 31.08 17.245 46.482 10.024l51.818 51.818-19.862 19.872c-19.007 3.884-42.052-.556-60.791-6.202-20.583-6.181-39.27-17.472-54.466-32.667-18.924-18.924-28.505-43.896-28.505-68.795 0-24.086 8.962-48.12 27.125-66.56 37.241-37.807 98.083-37.993 135.551-.525l.474.474c15.968 15.968 27.65 35.778 33.574 57.577 4.665 17.182 8.137 38.084 5.675 58.06z" fill="#c3bec6"/><path d="m467.053 327.923-14.508 14.508c-19.003 3.887-42.049-.557-60.795-6.197-20.581-6.187-39.265-17.477-54.464-32.676-18.921-18.921-28.5-43.884-28.5-68.786 0-24.087 8.971-48.122 27.129-66.569 2.619-2.65 5.341-5.125 8.177-7.403-13.91 17.302-20.798 38.368-20.798 59.464 0 24.901 9.579 49.865 28.5 68.786 15.199 15.199 33.882 26.489 54.464 32.676 18.756 5.63 41.791 10.084 60.795 6.197z" fill="#b4acb7"/><path d="m213.157 115.839 59.191 59.191c5.402 5.402 14.162 5.402 19.564 0l51.872-51.872c5.402-5.402 5.402-14.162 0-19.564l-59.191-59.191z" fill="#e27d47"/><path d="m213.157 115.839 59.191 59.191c5.402 5.402 14.162 5.402 19.564 0l13.909-13.909-68.973-68.973z" fill="#dd6938"/><path d="m379.857 204.182c-1.998 1.556-3.873 3.327-5.604 5.316-1.751 2.009-3.255 4.162-4.512 6.418l-20.81-20.81c-3.018-3.018-3.018-7.901 0-10.92 3.018-3.018 7.912-3.018 10.93 0z" fill="#b4acb7"/><path d="m236.911 454.359h40.118l20.987 12.933 41.447-12.933h62.434l22.187 12.933 40.247-12.933c15.86 0 28.717 12.857 28.717 28.717 0 15.86-12.857 28.717-28.717 28.717h-40.121l-15.884-12.299-46.55 12.299h-62.434l-19.825-9.558-42.606 9.558z" fill="#665e66"/><g fill="#e27d47"><path d="m277.029 454.359h62.434l-40.121 57.433h-62.434z"/><path d="m464.331 454.359-40.121 57.433h-62.434l40.121-57.433z"/><path d="m0 216.088v185.208l175.681 77.75v-262.958c0-48.513-39.327-87.84-87.84-87.84-48.514 0-87.841 39.327-87.841 87.84z"/></g><path d="m101.73 129.341c-18.694 2.97-35.429 11.827-48.236 24.633-15.9 15.9-25.727 37.863-25.727 62.114v197.5l-27.767-12.291v-185.209c0-24.252 9.837-46.215 25.726-62.114 15.9-15.9 37.852-25.726 62.115-25.726 4.722 0 9.362.371 13.889 1.093z" fill="#dd6938"/><path d="m43.941 249.837c-32.141-32.141-27.509-85.501 9.689-111.622l151.788-106.59 56.735 56.735-106.59 151.788c-26.122 37.198-79.481 41.83-111.622 9.689z" fill="#665e66"/><path d="m53.834 258.139c-3.471-2.421-6.773-5.184-9.887-8.297-32.146-32.146-27.509-85.503 9.682-111.627l151.794-106.589 18.184 18.184-151.786 106.596c-33.597 23.594-40.633 69.404-17.987 101.733z" fill="#544f57"/><circle cx="95.611" cy="198.166" fill="#e27d47" r="36.92"/><path d="m90.21 224.273c4.547 4.547 9.992 7.661 15.755 9.332-12.518 3.65-26.582.536-36.46-9.332-14.415-14.425-14.415-37.801 0-52.216 9.878-9.868 23.942-12.982 36.46-9.332-5.764 1.67-11.208 4.784-15.755 9.332-14.415 14.415-14.415 37.79 0 52.216z" fill="#dd6938"/><path d="m95.611 242.792c-11.433 0-22.866-4.352-31.57-13.056-17.406-17.408-17.406-45.732 0-63.139 17.409-17.408 45.733-17.406 63.141 0 8.433 8.433 13.076 19.644 13.076 31.57s-4.644 23.137-13.076 31.57c-8.705 8.703-20.138 13.055-31.571 13.055zm0-73.806c-7.476 0-14.952 2.846-20.643 8.537-11.382 11.382-11.382 29.903 0 41.286 11.381 11.383 29.904 11.382 41.286 0 5.514-5.514 8.551-12.845 8.551-20.643s-3.037-15.129-8.551-20.643c-5.691-5.691-13.167-8.537-20.643-8.537z" fill="#544f57"/><circle cx="231.703" cy="62.95" fill="#c3bec6" r="62.744"/><path d="m201.501 107.317c10.446 10.446 23.663 16.442 37.292 17.977-18.327 2.081-37.395-3.915-51.457-17.977-24.498-24.498-24.498-64.232 0-88.729 14.062-14.062 33.13-20.058 51.457-17.977-13.629 1.535-26.846 7.52-37.292 17.977-24.508 24.497-24.508 64.231 0 88.729z" fill="#b4acb7"/><circle cx="231.703" cy="62.95" fill="#e27d47" r="20.578"/><path d="m231.703 91.241c-7.248 0-14.497-2.759-20.015-8.277-11.034-11.036-11.034-28.992 0-40.027 11.036-11.035 28.993-11.037 40.029 0 5.345 5.346 8.29 12.453 8.29 20.014s-2.945 14.668-8.291 20.014h.001c-5.518 5.517-12.766 8.276-20.014 8.276zm-.001-41.136c-3.291 0-6.581 1.253-9.086 3.758-5.01 5.011-5.01 13.164 0 18.175 5.011 5.011 13.165 5.009 18.174 0h.001c2.427-2.427 3.764-5.654 3.764-9.087s-1.337-6.66-3.764-9.087c-2.506-2.507-5.797-3.759-9.089-3.759z" fill="#b4acb7"/><path d="m185.049 349.435h-133.188c-28.642 0-51.861 23.219-51.861 51.862v110.496h236.911v-110.496c0-28.643-23.22-51.862-51.862-51.862z" fill="#f9f6f9"/><path d="m77.921 349.432c-28.644 0-51.865 23.221-51.865 51.865v110.494h-26.056v-110.494c0-28.644 23.221-51.865 51.865-51.865z" fill="#e2dfe2"/><g><path d="m58.086 435.87c-4.803.176-9.605.176-14.408 0-8.374-.307-15.147-7.08-15.454-15.454-.176-4.803-.176-9.606 0-14.408.307-8.374 7.08-15.147 15.454-15.454 4.703-.173 9.406-.176 14.109-.011 8.603.302 15.461 7.161 15.764 15.764.165 4.703.162 9.406-.011 14.109-.307 8.375-7.08 15.147-15.454 15.454z" fill="#da4a54"/><path d="m126.869 435.87c-4.803.176-9.605.176-14.408 0-8.374-.307-15.147-7.08-15.454-15.454-.176-4.803-.176-9.606 0-14.408.307-8.374 7.08-15.147 15.454-15.454 4.703-.173 9.406-.176 14.109-.011 8.603.302 15.461 7.161 15.764 15.764.165 4.703.162 9.406-.011 14.109-.308 8.375-7.08 15.147-15.454 15.454z" fill="#ffef4a"/><path d="m193.233 435.87c-4.803.176-9.605.176-14.408 0-8.374-.307-15.147-7.08-15.454-15.454-.176-4.803-.176-9.606 0-14.408.307-8.374 7.08-15.147 15.454-15.454 4.703-.173 9.406-.176 14.109-.011 8.603.302 15.461 7.161 15.764 15.764.165 4.703.162 9.406-.011 14.109-.308 8.375-7.08 15.147-15.454 15.454z" fill="#78d0b1"/></g><g><path d="m57.228 435.873c.144 0 .289.01.433.01-4.65.165-9.321.165-13.982-.01-8.373-.309-15.147-7.084-15.456-15.456-.175-4.805-.175-9.61 0-14.415.309-8.372 7.084-15.147 15.456-15.446 4.671-.175 9.332-.175 14.002-.01-.155 0-.299 0-.454.01-8.383.299-15.147 7.074-15.456 15.446-.175 4.805-.175 9.61 0 14.415.31 8.372 7.074 15.147 15.457 15.456z" fill="#d82e3d"/><path d="m126.003 435.873c.145 0 .289.01.433.01-4.661.165-9.321.155-13.972-.01-8.373-.309-15.147-7.084-15.456-15.456-.175-4.805-.175-9.61 0-14.415.309-8.372 7.084-15.147 15.456-15.446 4.661-.175 9.332-.175 13.992-.01-.155 0-.299 0-.454.01-8.373.299-15.147 7.074-15.446 15.446-.186 4.805-.186 9.61 0 14.415.3 8.372 7.074 15.147 15.447 15.456z" fill="#ffd321"/><path d="m192.366 435.873c.144 0 .289.01.433.01-4.661.165-9.311.155-13.972-.01-8.373-.309-15.147-7.084-15.456-15.456-.175-4.805-.175-9.61 0-14.415.309-8.372 7.084-15.147 15.456-15.446 4.661-.175 9.332-.175 13.992-.01-.155 0-.299 0-.454.01-8.373.299-15.147 7.074-15.446 15.446-.175 4.805-.175 9.61 0 14.415.3 8.372 7.074 15.147 15.447 15.456z" fill="#66b49d"/></g></g></svg>