<svg width="512" height="512" viewBox="0 0 512 512" fill="none" xmlns="http://www.w3.org/2000/svg">
<g id="partnership 1">
<g id="Flat">
<path id="Vector" d="M192 256H416V416H192V256Z" fill="#EF5249"/>
<path id="Vector_2" d="M336 400.971L353.177 416H416V380.435C408.816 379.138 401.425 379.602 394.459 381.785C387.493 383.968 381.159 387.806 376 392.971L340 356.971C336.81 353.826 332.505 352.07 328.025 352.086C323.545 352.102 319.254 353.889 316.086 357.057C312.918 360.225 311.131 364.516 311.115 368.996C311.099 373.476 312.855 377.781 316 380.971L336 400.971Z" fill="#E8493F"/>
<g id="blue-card">
<path id="Vector_3" d="M96 256H154.845C149.967 251.702 146.514 246.021 144.945 239.711C143.377 233.402 143.767 226.765 146.064 220.683C148.361 214.602 152.456 209.364 157.804 205.667C163.152 201.97 169.499 199.99 176 199.99C182.501 199.99 188.848 201.97 194.196 205.667C199.544 209.364 203.639 214.602 205.936 220.683C208.233 226.765 208.623 233.402 207.055 239.711C205.486 246.021 202.033 251.702 197.155 256H256V314.845C251.702 309.967 246.021 306.514 239.711 304.945C233.402 303.377 226.765 303.767 220.683 306.064C214.602 308.361 209.364 312.456 205.667 317.804C201.97 323.152 199.99 329.499 199.99 336C199.99 342.501 201.97 348.848 205.667 354.196C209.364 359.544 214.602 363.639 220.683 365.936C226.765 368.233 233.402 368.623 239.711 367.055C246.021 365.486 251.702 362.033 256 357.155V416H96V256Z" fill="#0093BA"/>
<path id="Vector_4" d="M111.029 336L96 353.177V416H131.565C132.862 408.816 132.398 401.425 130.215 394.459C128.032 387.493 124.194 381.159 119.029 376L155.029 340C158.174 336.81 159.93 332.505 159.914 328.025C159.898 323.545 158.111 319.254 154.943 316.086C151.775 312.918 147.484 311.131 143.004 311.115C138.524 311.099 134.219 312.855 131.029 316L111.029 336Z" fill="#047FA7"/>
<path id="Vector_5" d="M24 416L40 400V328C40 321.635 42.5286 315.53 47.0294 311.029C51.5303 306.529 57.6348 304 64 304H96V336L116 316C119.183 312.818 123.499 311.03 128 311.03C132.501 311.03 136.817 312.818 140 316C143.182 319.183 144.97 323.499 144.97 328C144.97 332.501 143.182 336.817 140 340L104 376C112.487 384.487 117.255 395.998 117.255 408C117.255 420.002 112.487 431.513 104 440L64 480L24 416Z" fill="#F5BE9A"/>
<path id="Vector_6" d="M84.6323 335.988L79.947 340.673C76.8233 343.797 76.8233 348.861 79.947 351.985C83.0707 355.109 88.1353 355.109 91.259 351.985L95.9443 347.3C99.068 344.176 99.068 339.111 95.9443 335.988C92.8206 332.864 87.756 332.864 84.6323 335.988Z" fill="#EC917F"/>
</g>
<g id="green-card">
<path id="Vector_7" d="M96 96H328V256H96V96Z" fill="#88BF40"/>
<path id="Vector_8" d="M176 111.029L158.823 96H96V131.565C103.184 132.862 110.575 132.398 117.541 130.215C124.507 128.032 130.841 124.194 136 119.029L172 155.029C175.19 158.174 179.495 159.93 183.975 159.914C188.455 159.898 192.746 158.111 195.914 154.943C199.082 151.775 200.869 147.484 200.885 143.004C200.901 138.524 199.145 134.219 196 131.029L176 111.029Z" fill="#7CA540"/>
<path id="Vector_9" d="M96 24L112 40H184C190.365 40 196.47 42.5286 200.971 47.0294C205.471 51.5303 208 57.6348 208 64V96H176L196 116C199.182 119.183 200.97 123.499 200.97 128C200.97 132.501 199.182 136.817 196 140C192.817 143.182 188.501 144.97 184 144.97C179.499 144.97 175.183 143.182 172 140L136 104C127.513 112.487 116.002 117.255 104 117.255C91.9977 117.255 80.4869 112.487 72 104L32 64L96 24Z" fill="#F5BE9A"/>
<path id="Vector_10" d="M171.288 80.017C168.164 76.8933 163.1 76.8933 159.976 80.017C156.852 83.1407 156.852 88.2053 159.976 91.329L164.661 96.0143C167.785 99.138 172.85 99.138 175.973 96.0143C179.097 92.8906 179.097 87.826 175.973 84.7023L171.288 80.017Z" fill="#EC917F"/>
</g>
<g id="yellow-card">
<path id="Vector_11" d="M256 96V154.845C260.298 149.967 265.979 146.514 272.289 144.945C278.598 143.377 285.235 143.767 291.317 146.064C297.398 148.361 302.636 152.456 306.333 157.804C310.03 163.152 312.01 169.499 312.01 176C312.01 182.501 310.03 188.848 306.333 194.196C302.636 199.544 297.398 203.639 291.317 205.936C285.235 208.233 278.598 208.623 272.289 207.055C265.979 205.486 260.298 202.033 256 197.155V256H314.845C309.967 260.298 306.514 265.979 304.945 272.289C303.377 278.598 303.767 285.235 306.064 291.317C308.361 297.398 312.456 302.636 317.804 306.333C323.152 310.03 329.499 312.01 336 312.01C342.501 312.01 348.848 310.03 354.196 306.333C359.544 302.636 363.639 297.398 365.936 291.317C368.233 285.235 368.623 278.598 367.055 272.289C365.486 265.979 362.033 260.298 357.155 256H416V96H256Z" fill="#FFC119"/>
<path id="Vector_12" d="M400.971 176L416 158.823V96H380.435C379.138 103.184 379.602 110.575 381.785 117.541C383.968 124.507 387.806 130.841 392.971 136L356.971 172C353.826 175.19 352.07 179.495 352.086 183.975C352.102 188.455 353.889 192.746 357.057 195.914C360.225 199.082 364.516 200.869 368.996 200.885C373.476 200.901 377.781 199.145 380.971 196L400.971 176Z" fill="#FAAC2B"/>
<path id="Vector_13" d="M488 96L472 112V184C472 190.365 469.471 196.47 464.971 200.971C460.47 205.471 454.365 208 448 208H416V176L396 196C392.817 199.182 388.501 200.97 384 200.97C379.499 200.97 375.183 199.182 372 196C368.818 192.817 367.03 188.501 367.03 184C367.03 179.499 368.818 175.183 372 172L408 136C399.513 127.513 394.745 116.002 394.745 104C394.745 91.9977 399.513 80.4869 408 72L448 32L488 96Z" fill="#F5BE9A"/>
<path id="Vector_14" d="M420.631 160.047L415.946 164.732C412.822 167.856 412.822 172.92 415.946 176.044C419.07 179.168 424.134 179.168 427.258 176.044L431.943 171.359C435.067 168.235 435.067 163.17 431.943 160.047C428.82 156.923 423.755 156.923 420.631 160.047Z" fill="#EC917F"/>
</g>
<path id="Vector_15" d="M416 488L400 472H328C321.635 472 315.53 469.471 311.029 464.971C306.529 460.47 304 454.365 304 448V416H336L316 396C312.818 392.817 311.03 388.501 311.03 384C311.03 379.499 312.818 375.183 316 372C319.183 368.818 323.499 367.03 328 367.03C332.501 367.03 336.817 368.818 340 372L376 408C384.487 399.513 395.998 394.745 408 394.745C420.002 394.745 431.513 399.513 440 408L480 448L416 488Z" fill="#F5BE9A"/>
<path id="Vector_16" d="M347.229 416.016C344.105 412.892 339.041 412.892 335.917 416.016C332.793 419.14 332.793 424.204 335.917 427.328L340.602 432.013C343.726 435.137 348.791 435.137 351.914 432.013C355.038 428.89 355.038 423.825 351.914 420.701L347.229 416.016Z" fill="#EC917F"/>
</g>
</g>
</svg>
