<svg xmlns="http://www.w3.org/2000/svg" height="512pt" version="1.1" viewBox="0 0 512 512" width="512pt">
<g id="surface1">
<path d="M 512 256 C 512 397.386719 397.386719 512 256 512 C 114.613281 512 0 397.386719 0 256 C 0 114.613281 114.613281 0 256 0 C 397.386719 0 512 114.613281 512 256 Z M 512 256 " style=" stroke:none;fill-rule:nonzero;fill:rgb(29.019608%,47.843137%,100%);fill-opacity:1;" />
<path d="M 512 256 C 512 238.730469 510.277344 221.863281 507.019531 205.550781 L 425.804688 124.339844 L 86.195312 387.660156 L 205.550781 507.019531 C 221.863281 510.277344 238.730469 512 256 512 C 397.386719 512 512 397.386719 512 256 Z M 512 256 " style=" stroke:none;fill-rule:nonzero;fill:rgb(15.686275%,39.215686%,94.117647%);fill-opacity:1;" />
<path d="M 86.195312 124.339844 L 425.804688 124.339844 L 425.804688 387.660156 L 86.195312 387.660156 Z M 86.195312 124.339844 " style=" stroke:none;fill-rule:nonzero;fill:rgb(100%,100%,100%);fill-opacity:1;" />
<path d="M 255.761719 124.339844 L 425.804688 124.339844 L 425.804688 387.660156 L 255.761719 387.660156 Z M 255.761719 124.339844 " style=" stroke:none;fill-rule:nonzero;fill:rgb(91.372549%,92.941176%,96.078431%);fill-opacity:1;" />
<path d="M 86.195312 124.339844 L 425.804688 124.339844 L 425.804688 167.667969 L 86.195312 167.667969 Z M 86.195312 124.339844 " style=" stroke:none;fill-rule:nonzero;fill:rgb(90.196078%,90.196078%,90.196078%);fill-opacity:1;" />
<path d="M 255.761719 124.339844 L 425.804688 124.339844 L 425.804688 167.667969 L 255.761719 167.667969 Z M 255.761719 124.339844 " style=" stroke:none;fill-rule:nonzero;fill:rgb(84.313725%,84.313725%,84.313725%);fill-opacity:1;" />
<path d="M 130.332031 146.332031 C 130.332031 152.59375 125.257812 157.664062 119 157.664062 C 112.742188 157.664062 107.667969 152.59375 107.667969 146.332031 C 107.667969 140.074219 112.742188 135 119 135 C 125.257812 135 130.332031 140.074219 130.332031 146.332031 Z M 130.332031 146.332031 " style=" stroke:none;fill-rule:nonzero;fill:rgb(99.607843%,41.568627%,8.627451%);fill-opacity:1;" />
<path d="M 167.925781 146.332031 C 167.925781 152.59375 162.851562 157.664062 156.59375 157.664062 C 150.332031 157.664062 145.257812 152.59375 145.257812 146.332031 C 145.257812 140.074219 150.332031 135 156.59375 135 C 162.851562 135 167.925781 140.074219 167.925781 146.332031 Z M 167.925781 146.332031 " style=" stroke:none;fill-rule:nonzero;fill:rgb(100%,83.137255%,0%);fill-opacity:1;" />
<path d="M 206.753906 146.332031 C 206.753906 152.59375 201.679688 157.664062 195.421875 157.664062 C 189.160156 157.664062 184.085938 152.59375 184.085938 146.332031 C 184.085938 140.074219 189.160156 135 195.421875 135 C 201.679688 135 206.753906 140.074219 206.753906 146.332031 Z M 206.753906 146.332031 " style=" stroke:none;fill-rule:nonzero;fill:rgb(3.529412%,80.784314%,40.392157%);fill-opacity:1;" />
<path d="M 239.796875 265.355469 C 239.796875 301.839844 210.21875 331.417969 173.730469 331.417969 C 137.246094 331.417969 107.667969 301.839844 107.667969 265.355469 C 107.667969 228.867188 137.246094 199.289062 173.730469 199.289062 C 210.21875 199.289062 239.796875 228.867188 239.796875 265.355469 Z M 239.796875 265.355469 " style=" stroke:none;fill-rule:nonzero;fill:rgb(3.529412%,80.784314%,40.392157%);fill-opacity:1;" />
<path d="M 173.730469 199.289062 C 173.492188 199.289062 173.261719 199.304688 173.023438 199.308594 L 173.023438 331.402344 C 173.261719 331.402344 173.492188 331.421875 173.730469 331.421875 C 210.21875 331.421875 239.796875 301.84375 239.796875 265.355469 C 239.796875 228.867188 210.21875 199.289062 173.730469 199.289062 Z M 173.730469 199.289062 " style=" stroke:none;fill-rule:nonzero;fill:rgb(10.196078%,67.843137%,36.078431%);fill-opacity:1;" />
<path d="M 160.996094 303.53125 L 125.132812 267.664062 L 140.152344 252.644531 L 160.996094 273.488281 L 207.308594 227.175781 L 222.332031 242.199219 Z M 160.996094 303.53125 " style=" stroke:none;fill-rule:nonzero;fill:rgb(100%,100%,100%);fill-opacity:1;" />
<path d="M 207.308594 227.175781 L 173.023438 261.464844 L 173.023438 291.507812 L 222.332031 242.199219 Z M 207.308594 227.175781 " style=" stroke:none;fill-rule:nonzero;fill:rgb(91.372549%,92.941176%,96.078431%);fill-opacity:1;" />
<path d="M 308.480469 247.171875 L 252.847656 247.171875 L 252.847656 263.363281 L 272.566406 263.363281 L 272.566406 303.539062 L 288.761719 303.539062 L 288.761719 263.363281 L 308.480469 263.363281 Z M 308.480469 247.171875 " style=" stroke:none;fill-rule:nonzero;fill:rgb(25.490196%,28.627451%,32.156863%);fill-opacity:1;" />
<path d="M 413.941406 247.902344 L 396.503906 247.902344 L 388.613281 261.632812 L 380.726562 247.902344 L 363.289062 247.902344 L 379.273438 275.722656 L 363.289062 303.539062 L 380.726562 303.539062 L 388.613281 289.808594 L 396.503906 303.539062 L 413.941406 303.539062 L 397.957031 275.722656 Z M 413.941406 247.902344 " style=" stroke:none;fill-rule:nonzero;fill:rgb(20%,22.352941%,25.098039%);fill-opacity:1;" />
<path d="M 343.773438 303.539062 L 359.96875 303.539062 L 344.605469 247.902344 L 320.109375 247.902344 L 304.746094 303.539062 L 320.9375 303.539062 L 324.84375 289.398438 L 339.871094 289.398438 Z M 327.960938 278.101562 L 332.355469 262.1875 L 336.75 278.101562 Z M 327.960938 278.101562 " style=" stroke:none;fill-rule:nonzero;fill:rgb(25.490196%,28.627451%,32.156863%);fill-opacity:1;" />
<path d="M 344.605469 247.902344 L 332.332031 247.902344 L 332.332031 262.269531 L 332.355469 262.1875 L 336.75 278.101562 L 332.332031 278.101562 L 332.332031 289.398438 L 339.867188 289.398438 L 343.773438 303.539062 L 359.96875 303.539062 Z M 344.605469 247.902344 " style=" stroke:none;fill-rule:nonzero;fill:rgb(20%,22.352941%,25.098039%);fill-opacity:1;" />
</g>
</svg>